PathFileType	4	(X/Y/Z)	C:/Users/opensim2020/Desktop/walking_exp_matlab/subject03_walking15_straight_01.trc	
DataRate	CameraRate	NumFrames	NumMarkers	Units	OrigDataRate	OrigDataStartFrame	OrigNumFrames	
100.00	100.00	6	47	mm	100.00	525	196	
Frame#	Time	LFHD			RFHD			LBHD			RBHD			C7			T10			CLAV			STRN			RBAK			LSHO			LUPA			LELB			LFRM			LWRA			LWRB			LFIN			RSHO			RUPA			RELB			RFRM			RWRA			RWRB			RFIN			LASI			RASI			LPSI			RPSI			LTHI			LKNE			LTIB			LANK			LHEE			LTOE			RTHI			RKNE			RTIB			RANK			RHEE			RTOE			*39			*40			*41			*42			*43			*44			*45			*46			
		X1	Y1	Z1	X2	Y2	Z2	X3	Y3	Z3	X4	Y4	Z4	X5	Y5	Z5	X6	Y6	Z6	X7	Y7	Z7	X8	Y8	Z8	X9	Y9	Z9	X10	Y10	Z10	X11	Y11	Z11	X12	Y12	Z12	X13	Y13	Z13	X14	Y14	Z14	X15	Y15	Z15	X16	Y16	Z16	X17	Y17	Z17	X18	Y18	Z18	X19	Y19	Z19	X20	Y20	Z20	X21	Y21	Z21	X22	Y22	Z22	X23	Y23	Z23	X24	Y24	Z24	X25	Y25	Z25	X26	Y26	Z26	X27	Y27	Z27	X28	Y28	Z28	X29	Y29	Z29	X30	Y30	Z30	X31	Y31	Z31	X32	Y32	Z32	X33	Y33	Z33	X34	Y34	Z34	X35	Y35	Z35	X36	Y36	Z36	X37	Y37	Z37	X38	Y38	Z38	X39	Y39	Z39	X40	Y40	Z40	X41	Y41	Z41	X42	Y42	Z42	X43	Y43	Z43	X44	Y44	Z44	X45	Y45	Z45	X46	Y46	Z46	X47	Y47	Z47	

25	0.240	1387.13416	-726.90320	1620.55884	1520.21802	-733.11346	1622.95361	1386.50500	-845.87524	1555.24280	1517.44006	-846.57153	1557.99109	1442.66614	-861.14655	1409.06030	1423.11487	-911.77521	1102.60815	1444.59705	-737.05347	1333.30090	1429.78186	-700.29199	1165.96838	1527.75232	-919.67487	1233.86670	1290.35229	-775.16046	1382.86633	1207.50354	-771.97760	1193.12561	1197.77515	-749.58838	1074.26807	1223.11243	-666.63257	983.90387	1279.89099	-589.50800	913.15765	1235.27148	-606.09039	886.32532	1262.87354	-538.42377	847.01520	1603.56116	-790.41980	1348.53308	1671.40198	-816.19873	1127.30725	1684.68506	-817.08307	1013.97894	1689.33374	-827.58173	877.05804	1655.43738	-819.45892	776.39551	1701.77283	-848.48303	779.36169	1692.81372	-838.19019	704.62537	1307.10876	-760.00067	923.34534	1541.27734	-747.52118	941.52087	1362.78381	-917.92181	949.94489	1509.23779	-912.77789	969.54944	1265.86487	-848.35406	622.13971	1289.60999	-877.43988	444.68158	1292.76086	-1034.76172	316.38867	1333.30127	-1181.79712	172.41420	1373.09863	-1228.93469	181.18983	1354.70276	-1125.03516	33.88568	1603.57532	-749.34418	654.71436	1566.47852	-688.10309	487.50903	1585.73511	-705.66339	294.13721	1555.57068	-712.37988	75.77908	1509.92419	-761.54041	41.15893	1529.70593	-573.91333	39.05759	1436.58423	-821.17169	1665.70972																					 
26	0.250	1388.82520	-716.24182	1622.16174	1521.95776	-722.16565	1624.37561	1388.36450	-835.25873	1557.04138	1519.27197	-835.63788	1559.52759	1445.07043	-850.38135	1410.17505	1425.54504	-899.67133	1103.75549	1446.06433	-725.72083	1335.05176	1430.86450	-688.32727	1167.85217	1530.68738	-907.12213	1235.01221	1292.28186	-765.35895	1384.78064	1209.83264	-762.33148	1194.90308	1200.45020	-740.21619	1075.93616	1224.37207	-657.68109	985.24677	1280.14673	-579.57062	914.88989	1236.60364	-597.47516	887.30096	1262.33716	-529.12903	848.46869	1605.22217	-777.99780	1350.19556	1673.17065	-801.44849	1128.74011	1686.07019	-801.27728	1015.43475	1690.49817	-810.52954	878.35608	1656.13367	-802.04126	777.78308	1702.83838	-830.27747	780.31067	1693.25073	-820.38940	705.51465	1309.26453	-747.35791	925.01825	1543.27625	-735.22998	942.97321	1364.29993	-905.84601	951.29114	1510.82593	-900.37299	971.42517	1266.48047	-830.94897	621.60815	1289.23108	-855.22156	443.66772	1295.05627	-1014.58911	319.47406	1334.81506	-1164.31726	178.69208	1375.97729	-1209.85950	193.02054	1356.48657	-1119.13354	37.40193	1605.25269	-739.84698	655.78442	1568.01379	-681.70935	487.36462	1586.89392	-702.85370	293.98285	1555.93713	-712.41254	75.65711	1510.15417	-761.59857	41.03349	1529.99500	-573.97137	38.79087	1438.26868	-809.66602	1667.09387																					 
27	0.260	1390.44446	-705.48608	1623.76196	1523.64697	-711.16400	1625.74927	1390.05908	-824.56750	1558.75012	1520.99780	-824.78168	1561.00464	1447.26807	-839.23932	1411.06921	1427.91797	-887.76257	1104.88354	1447.32947	-714.44122	1336.61926	1431.87354	-676.35559	1169.59607	1533.42151	-894.74036	1236.07971	1293.98987	-755.54712	1386.46375	1212.08130	-752.55243	1196.40723	1202.89551	-731.22125	1077.49121	1225.64270	-648.81757	986.20697	1280.22607	-569.99292	915.95770	1237.69568	-589.17255	887.85004	1261.59351	-520.58911	848.92151	1606.74243	-765.56567	1351.76807	1674.85449	-786.63623	1130.05786	1687.31421	-785.58533	1016.76349	1691.71484	-793.09802	879.63538	1657.33740	-783.38141	779.45490	1703.95898	-811.91113	781.30975	1693.65051	-802.13788	706.36255	1311.36230	-735.77325	926.31830	1545.18884	-723.26227	944.25867	1365.83667	-894.17664	952.51184	1512.43433	-888.37451	973.17523	1267.19177	-813.53113	621.10168	1289.83203	-832.14832	442.56985	1296.76001	-993.43420	322.54962	1337.07458	-1146.27869	186.26765	1378.75952	-1190.14893	204.83119	1357.68054	-1110.12195	42.93458	1606.77832	-731.41779	656.70282	1569.66992	-676.16327	487.18210	1588.22644	-700.10651	293.88779	1556.28052	-712.62848	75.64519	1510.53333	-761.82703	41.05433	1530.26306	-574.03015	38.61650	1439.59265	-798.56573	1668.54871																					 
28	0.270	1391.95081	-694.79596	1625.40491	1525.16016	-700.17346	1627.10278	1391.65430	-813.82678	1560.42883	1522.64038	-813.84387	1562.44946	1449.22180	-828.31354	1412.06702	1430.33301	-875.88226	1105.97253	1448.32825	-703.28168	1338.08472	1432.61340	-664.81689	1171.21008	1536.04480	-882.44672	1237.16248	1295.45374	-745.69305	1387.97400	1214.02466	-742.89215	1197.64221	1204.81824	-722.24377	1078.61267	1226.68799	-640.49292	986.54663	1280.19897	-560.77393	916.19360	1238.49622	-581.03516	887.98737	1260.74207	-512.64600	848.40692	1608.16211	-753.07648	1353.20569	1676.48181	-771.78662	1131.31006	1688.89490	-769.39423	1018.06464	1692.87207	-775.57257	880.81573	1657.86353	-765.41144	780.60333	1704.92737	-793.02808	782.19629	1694.19531	-783.30011	707.14764	1312.72461	-724.30652	927.58514	1547.00879	-711.37891	945.31409	1367.42480	-882.74127	953.50269	1514.10413	-876.46838	974.77148	1268.15088	-796.36267	620.68561	1290.39453	-808.79376	441.76779	1298.02649	-971.16534	325.16870	1340.42554	-1127.77747	194.44502	1383.11194	-1170.11035	214.58713	1357.34460	-1095.61316	49.86639	1610.04822	-721.55603	657.92883	1571.39551	-671.25873	486.73987	1589.73706	-697.18652	293.70035	1556.54431	-712.69971	75.56600	1510.87134	-761.92383	41.12741	1530.52405	-574.08099	38.49987	1441.97473	-788.05310	1670.42371																					 
29	0.280	1393.41455	-683.99158	1627.02625	1526.62219	-689.13226	1628.52417	1393.19128	-803.05396	1562.14099	1524.15808	-802.81848	1563.87012	1451.19739	-817.90009	1413.45959	1432.57324	-864.20807	1107.12817	1449.37646	-691.99493	1339.62988	1433.29565	-653.44312	1172.63464	1538.44531	-870.26752	1238.24536	1296.59802	-735.72607	1389.24121	1215.70898	-733.21082	1198.66528	1206.66370	-713.02075	1079.45850	1227.60107	-631.66315	986.87878	1279.58044	-550.73901	915.80408	1238.94946	-573.26355	887.65216	1259.80652	-505.24750	846.99689	1609.45691	-740.59869	1354.54443	1678.00623	-756.89441	1132.46753	1690.23462	-753.32391	1019.18414	1694.00684	-757.74426	881.85339	1658.72327	-746.56696	781.84375	1705.96472	-773.85663	783.05225	1694.84167	-763.98340	707.98639	1314.20544	-712.97174	928.79633	1548.63123	-699.99146	945.93109	1369.01514	-871.59320	954.36041	1515.75427	-864.88483	976.26392	1269.03638	-779.46796	620.85236	1290.52649	-785.46912	441.56525	1299.59326	-948.25195	327.84500	1344.77295	-1108.33716	202.46970	1388.48230	-1150.50037	221.72681	1357.85803	-1076.19031	56.54688	1608.30933	-716.99945	657.47974	1572.92810	-666.75342	486.08167	1590.85010	-694.45013	293.33322	1556.74438	-712.82593	75.57558	1511.10583	-762.01172	41.19956	1530.53101	-574.00092	38.34248	1442.91650	-776.61462	1671.77966																					 
30	0.290	1394.66577	-673.24469	1628.66003	1527.88782	-678.21167	1629.95972	1394.59570	-792.28845	1563.81116	1525.61267	-791.85907	1565.35620	1452.91760	-806.35071	1414.75610	1434.63757	-852.48828	1108.17480	1450.12402	-680.89777	1341.11743	1434.00171	-642.11664	1174.14819	1540.83569	-858.36505	1239.40271	1297.48584	-725.73376	1390.31958	1217.08179	-723.64490	1199.34155	1208.18042	-703.79346	1079.91223	1228.47607	-623.33917	986.50165	1279.96570	-543.43280	914.48853	1239.04895	-565.83740	886.83112	1258.77869	-498.32828	844.88422	1610.59436	-728.11230	1355.83569	1679.34827	-741.95709	1133.54590	1691.61426	-737.20563	1020.31799	1695.14844	-739.71735	882.98236	1659.65039	-727.53436	783.09875	1706.93713	-754.39264	783.90125	1695.37646	-744.11981	708.95294	1315.50647	-701.87555	930.09106	1550.11536	-688.30902	946.68329	1370.79224	-860.67078	955.22803	1517.66431	-852.89087	977.39337	1270.03638	-762.91193	621.89374	1290.84875	-761.99194	442.15506	1302.08350	-925.22491	331.12662	1349.36035	-1087.25049	209.23155	1393.18677	-1129.60144	226.88708	1359.08398	-1053.08972	63.12301	1609.38538	-709.24805	657.73401	1574.16943	-662.36633	485.34897	1591.53418	-692.41821	292.99890	1556.89380	-712.95966	75.50146	1511.25208	-762.20294	41.23756	1530.59717	-574.11200	38.24602	1445.54858	-766.93213	1673.92224																					 
